<?xml version="1.0" standalone="no"?>
<!DOCTYPE svg PUBLIC "-//W3C//DTD SVG 20010904//EN"
 "http://www.w3.org/TR/2001/REC-SVG-20010904/DTD/svg10.dtd">
<svg version="1.0" xmlns="http://www.w3.org/2000/svg"
 width="260.000000pt" height="260.000000pt" viewBox="0 0 260.000000 260.000000"
 preserveAspectRatio="xMidYMid meet">
<metadata>
Created by potrace 1.11, written by Peter Selinger 2001-2013
</metadata>
<g transform="translate(0.000000,260.000000) scale(0.100000,-0.100000)"
fill="#000000" stroke="none">
<path d="M145 2589 c-45 -13 -97 -61 -123 -112 l-22 -45 2 -1144 3 -1144 28
-42 c15 -23 46 -54 69 -69 l42 -28 1156 0 1156 0 42 28 c23 15 54 46 69 69
l28 42 0 1156 0 1156 -28 42 c-15 23 -46 54 -69 69 l-42 28 -1140 2 c-642 1
-1154 -3 -1171 -8z"/>
</g>
</svg>
