<?xml version="1.0" encoding="utf-8"?>
<!-- Generator: Adobe Illustrator 15.0.0, SVG Export Plug-In . SVG Version: 6.00 Build 0)  -->
<!DOCTYPE svg PUBLIC "-//W3C//DTD SVG 1.1//EN" "http://www.w3.org/Graphics/SVG/1.1/DTD/svg11.dtd">
<svg version="1.1" id="Layer_1" xmlns="http://www.w3.org/2000/svg" xmlns:xlink="http://www.w3.org/1999/xlink" x="0px" y="0px"
	 width="82.933px" height="71.05px" viewBox="-31.26 -29.8 82.933 71.05" enable-background="new -31.26 -29.8 82.933 71.05"
	 xml:space="preserve">
<pattern  x="-206.14" y="153.5" width="36" height="36" patternUnits="userSpaceOnUse" id="New_Pattern_Swatch_1" viewBox="0 -36 36 36" overflow="visible">
	<g>
		<polygon fill="none" points="0,0 36,0 36,-36 0,-36 		"/>
		<polygon fill="#FF7D27" points="36,0 0,0 0,-36 36,-36 		"/>
	</g>
</pattern>
<pattern  x="-206.14" y="153.5" width="54" height="54" patternUnits="userSpaceOnUse" id="SVGID_1_" viewBox="0 -54 54 54" overflow="visible">
	<g>
		<polygon fill="none" points="0,0 54,0 54,-54 0,-54 		"/>
		<g>
			<polygon fill="none" points="0,-54 54,-54 54,0 0,0 			"/>
			<g>
				<polygon fill="none" points="0,0 54,0 54,-54 0,-54 				"/>
				<g>
					<polygon fill="none" points="0,-54 54,-54 54,0 0,0 					"/>
					<polygon fill="#6B6B6B" points="54,-54 0,-54 0,0 54,0 					"/>
				</g>
			</g>
		</g>
	</g>
</pattern>
<pattern  x="-206.14" y="153.5" width="54" height="54" patternUnits="userSpaceOnUse" id="SVGID_10_" viewBox="0 -54 54 54" overflow="visible">
	<g>
		<polygon fill="none" points="0,0 54,0 54,-54 0,-54 		"/>
		<g>
			<polygon fill="none" points="0,-54 54,-54 54,0 0,0 			"/>
			<g>
				<polygon fill="none" points="0,0 54,0 54,-54 0,-54 				"/>
				<g>
					<polygon fill="none" points="0,-54 54,-54 54,0 0,0 					"/>
					<polygon fill="#6B6B6B" points="54,-54 0,-54 0,0 54,0 					"/>
				</g>
			</g>
		</g>
	</g>
</pattern>
<pattern  x="-206.14" y="153.5" width="54" height="54" patternUnits="userSpaceOnUse" id="SVGID_11_" viewBox="0 -54 54 54" overflow="visible">
	<g>
		<polygon fill="none" points="0,0 54,0 54,-54 0,-54 		"/>
		<g>
			<polygon fill="none" points="0,-54 54,-54 54,0 0,0 			"/>
			<g>
				<polygon fill="none" points="0,0 54,0 54,-54 0,-54 				"/>
				<g>
					<polygon fill="none" points="0,-54 54,-54 54,0 0,0 					"/>
					<polygon fill="#6B6B6B" points="54,-54 0,-54 0,0 54,0 					"/>
				</g>
			</g>
		</g>
	</g>
</pattern>
<pattern  x="-206.14" y="153.5" width="54" height="54" patternUnits="userSpaceOnUse" id="SVGID_12_" viewBox="0 -54 54 54" overflow="visible">
	<g>
		<polygon fill="none" points="0,0 54,0 54,-54 0,-54 		"/>
		<g>
			<polygon fill="none" points="0,-54 54,-54 54,0 0,0 			"/>
			<g>
				<polygon fill="none" points="0,0 54,0 54,-54 0,-54 				"/>
				<g>
					<polygon fill="none" points="0,-54 54,-54 54,0 0,0 					"/>
					<polygon fill="#6B6B6B" points="54,-54 0,-54 0,0 54,0 					"/>
				</g>
			</g>
		</g>
	</g>
</pattern>
<pattern  x="-206.14" y="153.5" width="54" height="54" patternUnits="userSpaceOnUse" id="SVGID_13_" viewBox="0 -54 54 54" overflow="visible">
	<g>
		<polygon fill="none" points="0,0 54,0 54,-54 0,-54 		"/>
		<g>
			<polygon fill="none" points="0,-54 54,-54 54,0 0,0 			"/>
			<g>
				<polygon fill="none" points="0,0 54,0 54,-54 0,-54 				"/>
				<g>
					<polygon fill="none" points="0,-54 54,-54 54,0 0,0 					"/>
					<polygon fill="#6B6B6B" points="54,-54 0,-54 0,0 54,0 					"/>
				</g>
			</g>
		</g>
	</g>
</pattern>
<pattern  x="-206.14" y="153.5" width="54" height="54" patternUnits="userSpaceOnUse" id="SVGID_14_" viewBox="0 -54 54 54" overflow="visible">
	<g>
		<polygon fill="none" points="0,0 54,0 54,-54 0,-54 		"/>
		<g>
			<polygon fill="none" points="0,-54 54,-54 54,0 0,0 			"/>
			<g>
				<polygon fill="none" points="0,0 54,0 54,-54 0,-54 				"/>
				<g>
					<polygon fill="none" points="0,-54 54,-54 54,0 0,0 					"/>
					<polygon fill="#6B6B6B" points="54,-54 0,-54 0,0 54,0 					"/>
				</g>
			</g>
		</g>
	</g>
</pattern>
<pattern  x="-206.14" y="153.5" width="54" height="54" patternUnits="userSpaceOnUse" id="SVGID_2_" viewBox="0 -54 54 54" overflow="visible">
	<g>
		<polygon fill="none" points="0,0 54,0 54,-54 0,-54 		"/>
		<g>
			<polygon fill="none" points="0,-54 54,-54 54,0 0,0 			"/>
			<g>
				<polygon fill="none" points="0,0 54,0 54,-54 0,-54 				"/>
				<g>
					<polygon fill="none" points="0,-54 54,-54 54,0 0,0 					"/>
					<polygon fill="#6B6B6B" points="54,-54 0,-54 0,0 54,0 					"/>
				</g>
			</g>
		</g>
	</g>
</pattern>
<pattern  x="-206.14" y="153.5" width="54" height="54" patternUnits="userSpaceOnUse" id="SVGID_3_" viewBox="0 -54 54 54" overflow="visible">
	<g>
		<polygon fill="none" points="0,0 54,0 54,-54 0,-54 		"/>
		<g>
			<polygon fill="none" points="0,-54 54,-54 54,0 0,0 			"/>
			<g>
				<polygon fill="none" points="0,0 54,0 54,-54 0,-54 				"/>
				<g>
					<polygon fill="none" points="0,-54 54,-54 54,0 0,0 					"/>
					<polygon fill="#6B6B6B" points="54,-54 0,-54 0,0 54,0 					"/>
				</g>
			</g>
		</g>
	</g>
</pattern>
<pattern  x="-206.14" y="153.5" width="54" height="54" patternUnits="userSpaceOnUse" id="SVGID_4_" viewBox="0 -54 54 54" overflow="visible">
	<g>
		<polygon fill="none" points="0,0 54,0 54,-54 0,-54 		"/>
		<g>
			<polygon fill="none" points="0,-54 54,-54 54,0 0,0 			"/>
			<g>
				<polygon fill="none" points="0,0 54,0 54,-54 0,-54 				"/>
				<g>
					<polygon fill="none" points="0,-54 54,-54 54,0 0,0 					"/>
					<polygon fill="#6B6B6B" points="54,-54 0,-54 0,0 54,0 					"/>
				</g>
			</g>
		</g>
	</g>
</pattern>
<pattern  x="-206.14" y="153.5" width="54" height="54" patternUnits="userSpaceOnUse" id="SVGID_5_" viewBox="0 -54 54 54" overflow="visible">
	<g>
		<polygon fill="none" points="0,0 54,0 54,-54 0,-54 		"/>
		<g>
			<polygon fill="none" points="0,-54 54,-54 54,0 0,0 			"/>
			<g>
				<polygon fill="none" points="0,0 54,0 54,-54 0,-54 				"/>
				<g>
					<polygon fill="none" points="0,-54 54,-54 54,0 0,0 					"/>
					<polygon fill="#6B6B6B" points="54,-54 0,-54 0,0 54,0 					"/>
				</g>
			</g>
		</g>
	</g>
</pattern>
<pattern  x="-206.14" y="153.5" width="54" height="54" patternUnits="userSpaceOnUse" id="SVGID_6_" viewBox="0 -54 54 54" overflow="visible">
	<g>
		<polygon fill="none" points="0,0 54,0 54,-54 0,-54 		"/>
		<g>
			<polygon fill="none" points="0,-54 54,-54 54,0 0,0 			"/>
			<g>
				<polygon fill="none" points="0,0 54,0 54,-54 0,-54 				"/>
				<g>
					<polygon fill="none" points="0,-54 54,-54 54,0 0,0 					"/>
					<polygon fill="#6B6B6B" points="54,-54 0,-54 0,0 54,0 					"/>
				</g>
			</g>
		</g>
	</g>
</pattern>
<pattern  x="-206.14" y="153.5" width="54" height="54" patternUnits="userSpaceOnUse" id="SVGID_7_" viewBox="0 -54 54 54" overflow="visible">
	<g>
		<polygon fill="none" points="0,0 54,0 54,-54 0,-54 		"/>
		<g>
			<polygon fill="none" points="0,-54 54,-54 54,0 0,0 			"/>
			<g>
				<polygon fill="none" points="0,0 54,0 54,-54 0,-54 				"/>
				<g>
					<polygon fill="none" points="0,-54 54,-54 54,0 0,0 					"/>
					<polygon fill="#6B6B6B" points="54,-54 0,-54 0,0 54,0 					"/>
				</g>
			</g>
		</g>
	</g>
</pattern>
<pattern  x="-206.14" y="153.5" width="54" height="54" patternUnits="userSpaceOnUse" id="SVGID_8_" viewBox="0 -54 54 54" overflow="visible">
	<g>
		<polygon fill="none" points="0,0 54,0 54,-54 0,-54 		"/>
		<g>
			<polygon fill="none" points="0,-54 54,-54 54,0 0,0 			"/>
			<g>
				<polygon fill="none" points="0,0 54,0 54,-54 0,-54 				"/>
				<g>
					<polygon fill="none" points="0,-54 54,-54 54,0 0,0 					"/>
					<polygon fill="#6B6B6B" points="54,-54 0,-54 0,0 54,0 					"/>
				</g>
			</g>
		</g>
	</g>
</pattern>
<pattern  x="-206.14" y="153.5" width="54" height="54" patternUnits="userSpaceOnUse" id="SVGID_9_" viewBox="0 -54 54 54" overflow="visible">
	<g>
		<polygon fill="none" points="0,0 54,0 54,-54 0,-54 		"/>
		<g>
			<polygon fill="none" points="0,-54 54,-54 54,0 0,0 			"/>
			<g>
				<polygon fill="none" points="0,0 54,0 54,-54 0,-54 				"/>
				<g>
					<polygon fill="none" points="0,-54 54,-54 54,0 0,0 					"/>
					<polygon fill="#6B6B6B" points="54,-54 0,-54 0,0 54,0 					"/>
				</g>
			</g>
		</g>
	</g>
</pattern>
<polygon fill="url(#New_Pattern_Swatch_1)" points="25.402,9.797 49.641,35.25 9.598,22.686 "/>
<polygon fill="url(#New_Pattern_Swatch_1)" points="-4.38,-27.97 4.581,10.627 6.877,9.132 16.643,10.512 19.743,3.621 "/>
<path fill="#FFFFFF" d="M19.922,2.851c4.4-9.01,8.729-18.331,13.269-27.359c0.25-0.494,0.383-1.518,1.238-1.443
	c0.543,0.693,0.146,1.611,0.065,2.336c-1.266,11.537-2.537,23.229-3.778,34.989c-0.085,0.825-0.392,1.885-0.273,2.477
	c0.146,0.76,1.875,2.15,2.543,2.816c4.505,4.504,8.334,9.021,12.922,13.611c1.179,1.176,2.562,2.626,3.92,4.055
	c0.396,0.42,1.178,1.061,0.963,1.514c-0.327,0.682-4.771,0.347-5.844,0.347c-12.432,0-24.208,0.202-36.569,0.202
	c-2.079,0-4.277-0.25-6.117,0c-1.089,0.148-2.31,0.773-3.508,1.169c-3.017,1-5.521,1.759-8.798,2.819
	c-1.596,0.517-1.875,0.688-2.336-0.963c-0.168-0.606-0.275-0.871-0.412-1.584c-1.706,0.809-2.625-1.416-3.368-2.4
	c-0.316-0.426-0.676-0.764-1.029-1.239c-0.287-0.388-0.889-1.108-0.895-1.374c-0.021-1.023,2.104-1.806,2.27-2.748
	c0.104-0.595-0.353-2.183-0.481-2.957c-1.112-6.617-2.495-13.695-3.507-20.209c-2.541,0.914-5.317,2.094-7.975,3.229
	c-0.805,0.348-1.705,1.096-2.611,0.689c-0.153-0.744,0.561-1.266,0.961-1.79c2.463-3.219,4.971-6.412,7.562-9.761
	c0.367-0.476,0.889-1.492,1.307-1.581c0.385-0.083,1.328,0.309,1.787,0.412c1.354,0.311,2.213,0.523,3.573,0.825
	c0.616,0.137,1.339,0.132,1.788,0.343c0.602,0.283,1.483,1.782,1.925,2.337c0.679,0.853,1.302,1.625,1.923,2.269
	c1.594-10.965,2.969-22.146,4.674-32.996c0.713-0.717,1.467,0.938,1.994,1.649C4.504-17.495,12.65-6.842,19.922,2.851z M4.73,9.93
	c0.893-0.135,1.262-1.514,2.269-1.651c0.546-0.072,1.561,0.273,2.338,0.413c2.371,0.427,5.014,0.919,7.08,1.308
	c0.979-1.979,1.951-3.959,2.889-5.981C11.729-6.278,4.057-16.478-3.654-26.638C-0.882-14.428,1.986-2.308,4.73,9.93z M-5.441-18.116
	C-6.332-11.612-7.261-5.309-8.125,1.2C-8.242,2.083-8.77,4.351-8.605,5.117c0.074,0.346,0.637,0.827,0.963,1.238
	c2.379,2.997,4.529,5.809,6.873,8.524c1.66-1.457,3.387-2.846,4.949-4.398C1.26-1.61-1.363-13.995-4.343-26.021
	C-4.602-23.473-5.064-20.874-5.441-18.116z M16.417,12.545c0.987,0.433,1.985,0.855,3.024,1.236c1.472-1.15,2.912-2.38,4.397-3.646
	c0.329-0.276,1.183-1.133,1.649-1.099C25.887,9.07,26.178,9.623,26.52,10c0.701,0.774,1.321,1.321,1.992,1.993
	c0.307,0.304,0.565,0.839,0.965,0.757c1.172-11.661,2.66-23.37,3.711-34.922C27.654-10.546,21.98,0.944,16.417,12.545z
	 M-20.221-1.136c-2.289,2.913-4.534,5.87-6.807,8.797c1.979-1.636,4.101-3.356,6.116-5.086c0.667-0.571,1.347-1.444,2.062-1.718
	c1.293-0.492,2.763-0.212,4.262-0.689C-16.439-0.29-18.348-0.698-20.221-1.136z M-13.623,0.789
	c-1.537,0.249-3.125,0.449-4.674,0.688c2.181,12.458,4.586,24.699,6.805,37.119C-7.279,32.084-3.222,25.42,0.813,18.73
	C-3.988,12.74-8.693,6.652-13.623,0.789z M-22.973,5.188c-1.346,1.146-2.732,2.299-3.848,3.437c0.004-0.043,0.01-0.08,0.067-0.066
	c1.25-0.555,2.509-1.047,3.779-1.586c1.225-0.516,2.453-1.282,3.851-1.372c0.483,1.192,0.602,2.516,0.824,3.778
	c1.499,8.449,3.146,17.188,4.674,25.502c0.112,0.612,0.063,1.34,0.481,1.855c0.871-0.139,0.306-1.257,0.205-1.788
	c-2.047-10.946-4.029-22.208-6.049-32.994C-20.293,2.876-21.631,4.048-22.973,5.188z M15.387,12.131
	c0.129-0.386,0.537-0.816,0.479-1.168c-1.884-0.226-3.793-0.789-5.567-0.894C12.033,10.717,13.675,11.459,15.387,12.131z
	 M-0.082,15.842c0.562,0.652,1.038,1.391,1.65,1.994c1.498-2.514,3.058-4.963,4.604-7.426c0.018-0.086,0.106-0.14-0.066-0.137
	C4.121,12.209,1.859,13.865-0.082,15.842z M10.091,21.48c2.68-2.137,5.697-4.525,8.318-6.943c-3.476-1.359-6.812-2.857-10.31-4.193
	C8.734,14.086,9.394,17.801,10.091,21.48z M25.353,10.344c-4.933,4.098-9.944,8.11-14.778,12.306
	c12.69,3.92,25.233,7.989,37.875,11.961C40.998,26.547,33.07,18.363,25.353,10.344z M-9.635,37.772
	c0.211,0.095,0.359-0.179,0.479-0.277c5.497-4.407,10.83-8.888,16.223-13.472c0.646-0.553,2.216-1.451,2.339-2.064
	c0.104-0.521-0.335-1.979-0.482-2.816c-0.468-2.667-1.105-6.536-1.648-8.522C1.671,19.703-3.962,28.756-9.635,37.772z M6.244,29.385
	c-0.918,1.516-1.83,3.018-2.682,4.466c-0.299,0.514-0.715,1.032-0.688,1.446c14.875-0.065,29.795-0.088,44.544-0.277
	c-12.502-3.905-24.912-7.898-37.394-11.822C8.736,25.111,7.507,27.297,6.244,29.385z M-0.631,31.791
	c-2.695,2.235-5.436,4.545-8.042,6.736c-0.105,0.09-0.392,0.189-0.345,0.412c3.594-1.174,7.135-2.396,10.793-3.505
	c2.16-3.615,4.365-7.187,6.461-10.863c0.074,0,0.055-0.088-0.068-0.067C5.393,26.965,2.316,29.344-0.631,31.791z M-16.715,32.957
	c0.587,0.789,1.179,1.569,1.785,2.34c-0.209-1.232-0.32-2.563-0.687-3.645C-15.965,32.105-16.422,32.452-16.715,32.957z"/>
<g>
	<pattern  id="SVGID_15_" xlink:href="#SVGID_1_" patternTransform="matrix(1.3182 0 0 -1.3182 9169.5684 -44587.5156)">
	</pattern>
	<path fill="#6B6B6B" stroke="url(#SVGID_15_)" stroke-width="0.5616" stroke-miterlimit="10" d="M170.232,207.29h-2.475v-0.892
		h6.022v0.892h-2.485v7.239h-1.062V207.29L170.232,207.29z"/>
	<pattern  id="SVGID_16_" xlink:href="#SVGID_2_" patternTransform="matrix(1.3182 0 0 -1.3182 9169.5684 -44587.5156)">
	</pattern>
	<path fill="#6B6B6B" stroke="url(#SVGID_16_)" stroke-width="0.5616" stroke-miterlimit="10" d="M176.643,206.398v3.401h3.935
		v-3.401h1.062v8.131h-1.062v-3.812h-3.936v3.812h-1.062v-8.131H176.643z"/>
	<pattern  id="SVGID_17_" xlink:href="#SVGID_3_" patternTransform="matrix(1.3182 0 0 -1.3182 9169.5684 -44587.5156)">
	</pattern>
	<path fill="#6B6B6B" stroke="url(#SVGID_17_)" stroke-width="0.5616" stroke-miterlimit="10" d="M188.568,210.717h-3.148v2.934
		h3.523v0.879h-4.586V206.4h4.404v0.879h-3.345v2.57h3.148v0.866L188.568,210.717L188.568,210.717z"/>
	<pattern  id="SVGID_18_" xlink:href="#SVGID_4_" patternTransform="matrix(1.3182 0 0 -1.3182 9169.5684 -44587.5156)">
	</pattern>
	<path fill="#6B6B6B" stroke="url(#SVGID_18_)" stroke-width="0.5616" stroke-miterlimit="10" d="M200.348,214.277
		c-0.375,0.19-1.158,0.386-2.147,0.386c-2.292,0-4.005-1.444-4.005-4.127c0-2.558,1.725-4.271,4.246-4.271
		c1,0,1.65,0.217,1.931,0.361l-0.267,0.854c-0.385-0.192-0.953-0.34-1.629-0.34c-1.906,0-3.172,1.221-3.172,3.355
		c0,2.003,1.146,3.268,3.111,3.268c0.653,0,1.305-0.131,1.727-0.336L200.348,214.277z"/>
	<pattern  id="SVGID_19_" xlink:href="#SVGID_5_" patternTransform="matrix(1.3182 0 0 -1.3182 9169.5684 -44587.5156)">
	</pattern>
	<path fill="#6B6B6B" stroke="url(#SVGID_19_)" stroke-width="0.5616" stroke-miterlimit="10" d="M202.581,206.506
		c0.53-0.095,1.304-0.169,2.018-0.169c1.123,0,1.856,0.218,2.352,0.665c0.398,0.361,0.639,0.916,0.639,1.557
		c0,1.062-0.675,1.772-1.52,2.063v0.035c0.615,0.217,0.988,0.794,1.182,1.641c0.267,1.134,0.458,1.92,0.628,2.231h-1.085
		c-0.132-0.24-0.312-0.928-0.528-1.942c-0.242-1.122-0.689-1.544-1.644-1.579h-0.989v3.521h-1.05L202.581,206.506L202.581,206.506z
		 M203.632,210.212h1.075c1.122,0,1.833-0.616,1.833-1.547c0-1.048-0.761-1.506-1.87-1.506c-0.507,0-0.854,0.036-1.038,0.084
		V210.212L203.632,210.212z"/>
	<pattern  id="SVGID_20_" xlink:href="#SVGID_6_" patternTransform="matrix(1.3182 0 0 -1.3182 9169.5684 -44587.5156)">
	</pattern>
	<path fill="#6B6B6B" stroke="url(#SVGID_20_)" stroke-width="0.5616" stroke-miterlimit="10" d="M214.18,210.717h-3.15v2.934h3.523
		v0.879h-4.585V206.4h4.404v0.879h-3.344v2.57h3.15L214.18,210.717L214.18,210.717z"/>
	<pattern  id="SVGID_21_" xlink:href="#SVGID_7_" patternTransform="matrix(1.3182 0 0 -1.3182 9169.5684 -44587.5156)">
	</pattern>
	<path fill="#6B6B6B" stroke="url(#SVGID_21_)" stroke-width="0.5616" stroke-miterlimit="10" d="M218.141,211.973l-0.848,2.557
		h-1.085l2.775-8.129h1.254l2.777,8.129h-1.123l-0.869-2.557H218.141L218.141,211.973z M220.818,211.152l-0.81-2.342
		c-0.182-0.531-0.302-1.015-0.422-1.484h-0.022c-0.121,0.472-0.242,0.977-0.41,1.473l-0.795,2.354H220.818L220.818,211.152z"/>
	<pattern  id="SVGID_22_" xlink:href="#SVGID_8_" patternTransform="matrix(1.3182 0 0 -1.3182 9169.5684 -44587.5156)">
	</pattern>
	<path fill="#6B6B6B" stroke="url(#SVGID_22_)" stroke-width="0.5616" stroke-miterlimit="10" d="M225.729,207.29h-2.473v-0.892
		h6.021v0.892h-2.485v7.239h-1.062v-7.239H225.729z"/>
	<pattern  id="SVGID_23_" xlink:href="#SVGID_9_" patternTransform="matrix(1.3182 0 0 -1.3182 9169.5684 -44587.5156)">
	</pattern>
	<path fill="#6B6B6B" stroke="url(#SVGID_23_)" stroke-width="0.5616" stroke-miterlimit="10" d="M232.141,206.398v8.131h-1.062
		v-8.131H232.141z"/>
	<pattern  id="SVGID_24_" xlink:href="#SVGID_10_" patternTransform="matrix(1.3182 0 0 -1.3182 9169.5684 -44587.5156)">
	</pattern>
	<path fill="#6B6B6B" stroke="url(#SVGID_24_)" stroke-width="0.5616" stroke-miterlimit="10" d="M236.667,214.529l-2.668-8.131
		h1.147l1.268,4.006c0.337,1.1,0.64,2.088,0.868,3.041h0.024c0.228-0.941,0.555-1.969,0.928-3.028l1.375-4.019h1.121l-2.906,8.131
		H236.667L236.667,214.529z"/>
	<pattern  id="SVGID_25_" xlink:href="#SVGID_11_" patternTransform="matrix(1.3182 0 0 -1.3182 9169.5684 -44587.5156)">
	</pattern>
	<path fill="#6B6B6B" stroke="url(#SVGID_25_)" stroke-width="0.5616" stroke-miterlimit="10" d="M246.721,210.717h-3.148v2.934
		h3.523v0.879h-4.588V206.4h4.403v0.879h-3.342v2.57h3.146L246.721,210.717L246.721,210.717L246.721,210.717z"/>
	<pattern  id="SVGID_26_" xlink:href="#SVGID_12_" patternTransform="matrix(1.3182 0 0 -1.3182 9169.5684 -44587.5156)">
	</pattern>
	<path fill="#6B6B6B" stroke="url(#SVGID_26_)" stroke-width="0.5616" stroke-miterlimit="10" d="M252.816,206.398h4.381v0.879
		h-3.317v2.703h3.063v0.869h-3.063v3.68h-1.062L252.816,206.398L252.816,206.398z"/>
	<pattern  id="SVGID_27_" xlink:href="#SVGID_13_" patternTransform="matrix(1.3182 0 0 -1.3182 9169.5684 -44587.5156)">
	</pattern>
	<path fill="#6B6B6B" stroke="url(#SVGID_27_)" stroke-width="0.5616" stroke-miterlimit="10" d="M263.812,210.717h-3.15v2.934
		h3.521v0.879H259.6V206.4h4.403v0.879h-3.343v2.57h3.149v0.866L263.812,210.717L263.812,210.717z"/>
	<pattern  id="SVGID_28_" xlink:href="#SVGID_14_" patternTransform="matrix(1.3182 0 0 -1.3182 9169.5684 -44587.5156)">
	</pattern>
	<path fill="#6B6B6B" stroke="url(#SVGID_28_)" stroke-width="0.5616" stroke-miterlimit="10" d="M267.893,214.529l-2.062-8.131
		h1.107l0.968,4.113c0.239,1.016,0.459,2.026,0.602,2.812h0.025c0.134-0.81,0.386-1.773,0.666-2.823l1.084-4.102h1.1l0.988,4.125
		c0.229,0.97,0.448,1.933,0.565,2.789h0.024c0.169-0.896,0.398-1.797,0.65-2.812l1.074-4.102h1.072l-2.304,8.133h-1.102
		l-1.024-4.234c-0.254-1.037-0.422-1.835-0.532-2.654h-0.022c-0.133,0.81-0.325,1.606-0.627,2.654l-1.16,4.234h-1.094
		L267.893,214.529L267.893,214.529z"/>
</g>
<rect x="-46.14" y="-168.5" fill="#FF7D27" width="36" height="36"/>
</svg>
